# xmcd
#
# Track frame offsets: 
#        150
#        12226
#        22711
#        34280
#        45723
#        54623
#        65698
#        76194
#        85292
#        96333
#        108782
#        120669
#        132730
#        143054
#        153979
#        165301
#        177526
#        187424
#        197377
#        207748
#
# Disc length: 2901 seconds
#
# Revision: 2
# Processed by: cddbd v1.5.2PL0 Copyright (c) Steve Scherf et al.
# Submitted via: ExactAudioCopy v1.1
#
DISCID=180b5314
DTITLE=Various Artist - Rhythm and Blues Goes Rock 'n' Roll - CD09
DYEAR=2002
DGENRE=Blues
TTITLE0=Joe Turner - I Love My Baby
TTITLE1=Elmo Nixon - Forgive Me Baby
TTITLE2=Bernie Hardison - Love Me Baby
TTITLE3=Doctor Gaddy - Evil Man Blues
TTITLE4=Jimmy 'Mr. Blues' Williams - Big Legged Woman
TTITLE5=Max 'Scatman' Bailey - Betty Jane
TTITLE6=Mr. Sad Head - Make Haste
TTITLE7=Gene Parrish - Dream Blues
TTITLE8=Earl Williams - Let's Make Love Tonight
TTITLE9=Blow Top Lynn and His House Rockers - Rampaging Mama
TTITLE10=Pat Valdelar - Baby Rock Me
TTITLE11=L.C. Williams - Shout, Baby, Shout
TTITLE12=Max 'Scatman' Bailey - Love Me, Pretty Baby
TTITLE13=Lee Graves - Papa Said Yes, Mama Said No, No, No
TTITLE14=Moohah (A.C. Williams) - Candy
TTITLE15=Dave Bartholomew - Good Jax Boogie
TTITLE16=King Perry - Come Back Baby
TTITLE17=Bobby Jackson - Oh Baby
TTITLE18=Smokey Smothers - Come On, Rock Little Girl
TTITLE19=Charles Williams - So Worried
EXTD=
EXTT0=
EXTT1=
EXTT2=
EXTT3=
EXTT4=
EXTT5=
EXTT6=
EXTT7=
EXTT8=
EXTT9=
EXTT10=
EXTT11=
EXTT12=
EXTT13=
EXTT14=
EXTT15=
EXTT16=
EXTT17=
EXTT18=
EXTT19=
PLAYORDER=
